<svg width="33" height="33" viewBox="0 0 33 33" fill="none" xmlns="http://www.w3.org/2000/svg">
<g clip-path="url(#clip0_2273_11179)">
<path d="M26.5601 3.2641H25.3665V2.05633C25.3665 1.36626 24.8071 0.806885 24.1171 0.806885C23.427 0.806885 22.8676 1.36626 22.8676 2.05633V3.2641H10.6089V2.05633C10.6089 1.36626 10.0495 0.806885 9.35944 0.806885C8.66937 0.806885 8.11 1.36626 8.11 2.05633V3.2641H6.91647C3.5098 3.2641 0.738281 6.03562 0.738281 9.44223V26.6145C0.738281 30.0211 3.5098 32.7926 6.91647 32.7926H26.5602C29.9668 32.7926 32.7383 30.0211 32.7383 26.6145V9.44223C32.7383 6.03562 29.9668 3.2641 26.5601 3.2641ZM6.91647 5.76299H8.11V8.19941C8.11 8.88947 8.66937 9.44885 9.35944 9.44885C10.0495 9.44885 10.6089 8.88947 10.6089 8.19941V5.76299H22.8677V8.19941C22.8677 8.88947 23.4271 9.44885 24.1171 9.44885C24.8072 9.44885 25.3666 8.88947 25.3666 8.19941V5.76299H26.5602C28.5889 5.76299 30.2394 7.41351 30.2394 9.44223V10.6358H3.23717V9.44223C3.23717 7.41351 4.88768 5.76299 6.91647 5.76299ZM26.5601 30.2938H6.91647C4.88768 30.2938 3.23717 28.6432 3.23717 26.6145V13.1347H30.2394V26.6145C30.2394 28.6432 28.5889 30.2938 26.5601 30.2938ZM11.8375 18.0492C11.8375 18.7393 11.2781 19.2987 10.5881 19.2987H8.13086C7.4408 19.2987 6.88142 18.7393 6.88142 18.0492C6.88142 17.3591 7.4408 16.7998 8.13086 16.7998H10.5881C11.2781 16.7998 11.8375 17.3591 11.8375 18.0492ZM26.5952 18.0492C26.5952 18.7393 26.0358 19.2987 25.3458 19.2987H22.8885C22.1985 19.2987 21.6391 18.7393 21.6391 18.0492C21.6391 17.3591 22.1985 16.7998 22.8885 16.7998H25.3458C26.0358 16.7998 26.5952 17.3591 26.5952 18.0492ZM19.2092 18.0492C19.2092 18.7393 18.6499 19.2987 17.9598 19.2987H15.5026C14.8125 19.2987 14.2531 18.7393 14.2531 18.0492C14.2531 17.3591 14.8125 16.7998 15.5026 16.7998H17.9598C18.6498 16.7998 19.2092 17.3591 19.2092 18.0492ZM11.8375 25.4209C11.8375 26.111 11.2781 26.6704 10.5881 26.6704H8.13086C7.4408 26.6704 6.88142 26.111 6.88142 25.4209C6.88142 24.7309 7.4408 24.1715 8.13086 24.1715H10.5881C11.2781 24.1715 11.8375 24.7309 11.8375 25.4209ZM26.5952 25.4209C26.5952 26.111 26.0358 26.6704 25.3458 26.6704H22.8885C22.1985 26.6704 21.6391 26.111 21.6391 25.4209C21.6391 24.7309 22.1985 24.1715 22.8885 24.1715H25.3458C26.0358 24.1715 26.5952 24.7309 26.5952 25.4209ZM19.2092 25.4209C19.2092 26.111 18.6499 26.6704 17.9598 26.6704H15.5026C14.8125 26.6704 14.2531 26.111 14.2531 25.4209C14.2531 24.7309 14.8125 24.1715 15.5026 24.1715H17.9598C18.6498 24.1715 19.2092 24.7309 19.2092 25.4209Z" fill="black"/>
</g>
<defs>
<clipPath id="clip0_2273_11179">
<rect width="32" height="32" fill="white" transform="translate(0.738281 0.799805)"/>
</clipPath>
</defs>
</svg>
