<svg width="32" height="32" viewBox="0 0 32 32" fill="none" xmlns="http://www.w3.org/2000/svg">
<path d="M28.4413 4.43306L24.1913 0.183062C24.0741 0.065875 23.9151 0 23.7494 0H7.752C7.40687 0 7.127 0.279875 7.127 0.625V3.6875H4C3.65487 3.6875 3.375 3.96738 3.375 4.3125V31.375C3.375 31.7201 3.65487 32 4 32H24.2474C24.5925 32 24.8724 31.7201 24.8724 31.375V28.3125H27.9994C28.3445 28.3125 28.6244 28.0326 28.6244 27.6875V4.875C28.6244 4.70925 28.5585 4.55031 28.4413 4.43306ZM23.6224 30.75H4.625V4.9375H7.127V27.6875C7.127 28.0326 7.40687 28.3125 7.752 28.3125H23.6224V30.75ZM27.3744 27.0625H8.377V1.25H23.4795V4.77806C23.4795 4.98062 23.6437 5.14481 23.8463 5.14481H27.3743V27.0625H27.3744Z" fill="black"/>
<path d="M11.5859 6.24536H21.3984C21.7436 6.24536 22.0234 5.96549 22.0234 5.62036C22.0234 5.27524 21.7436 4.99536 21.3984 4.99536H11.5859C11.2408 4.99536 10.9609 5.27524 10.9609 5.62036C10.9609 5.96549 11.2408 6.24536 11.5859 6.24536Z" fill="black"/>
<path d="M10.9609 8.43286C10.9609 8.77799 11.2408 9.05786 11.5859 9.05786H24.1656C24.5107 9.05786 24.7906 8.77799 24.7906 8.43286C24.7906 8.08774 24.5107 7.80786 24.1656 7.80786H11.5859C11.2408 7.80786 10.9609 8.08767 10.9609 8.43286Z" fill="black"/>
<path d="M24.1656 10.6204H11.5859C11.2408 10.6204 10.9609 10.9002 10.9609 11.2454C10.9609 11.5905 11.2408 11.8704 11.5859 11.8704H24.1656C24.5107 11.8704 24.7906 11.5905 24.7906 11.2454C24.7906 10.9002 24.5108 10.6204 24.1656 10.6204Z" fill="black"/>
<path d="M24.1656 13.4329H11.5859C11.2408 13.4329 10.9609 13.7127 10.9609 14.0579C10.9609 14.403 11.2408 14.6829 11.5859 14.6829H24.1656C24.5107 14.6829 24.7906 14.403 24.7906 14.0579C24.7906 13.7127 24.5108 13.4329 24.1656 13.4329Z" fill="black"/>
<path d="M24.1656 16.2454H11.5859C11.2408 16.2454 10.9609 16.5252 10.9609 16.8704C10.9609 17.2155 11.2408 17.4954 11.5859 17.4954H24.1656C24.5107 17.4954 24.7906 17.2155 24.7906 16.8704C24.7906 16.5252 24.5108 16.2454 24.1656 16.2454Z" fill="black"/>
<path d="M24.1656 19.0579H11.5859C11.2408 19.0579 10.9609 19.3377 10.9609 19.6829C10.9609 20.028 11.2408 20.3079 11.5859 20.3079H24.1656C24.5107 20.3079 24.7906 20.028 24.7906 19.6829C24.7906 19.3377 24.5108 19.0579 24.1656 19.0579Z" fill="black"/>
<path d="M24.1656 21.8704H11.5859C11.2408 21.8704 10.9609 22.1502 10.9609 22.4954C10.9609 22.8405 11.2408 23.1204 11.5859 23.1204H24.1656C24.5107 23.1204 24.7906 22.8405 24.7906 22.4954C24.7906 22.1502 24.5108 21.8704 24.1656 21.8704Z" fill="black"/>
</svg>
