<svg width="33" height="33" viewBox="0 0 33 33" fill="none" xmlns="http://www.w3.org/2000/svg">
<g clip-path="url(#clip0_2273_12371)">
<path d="M24.2885 23.0032C24.0125 23.0032 23.7505 23.0634 23.514 23.1705C23.2319 22.4859 22.5577 22.0026 21.7724 22.0026C21.2892 22.0026 20.8481 22.1857 20.5144 22.4859C20.1806 22.1857 19.7395 22.0026 19.2563 22.0026C19.0343 22.0026 18.8212 22.0415 18.6232 22.1124V19.134C18.6232 18.0957 17.7785 17.251 16.7402 17.251C15.7019 17.251 14.8571 18.0957 14.8571 19.134V27.0069L14.4979 26.4175C13.9434 25.5077 12.7863 25.2124 11.8637 25.7451C10.9862 26.2517 10.6439 27.3634 11.0845 28.2759L13.0755 32.4C13.1834 32.6233 13.4065 32.7535 13.6389 32.7535C13.73 32.7535 13.8225 32.7335 13.9101 32.6912C14.221 32.5411 14.3513 32.1675 14.2012 31.8566L12.2102 27.7325C12.0526 27.4062 12.175 27.0089 12.4888 26.8277C12.8187 26.6372 13.2323 26.7428 13.4305 27.068L14.9484 29.5587C15.0942 29.7979 15.3814 29.9109 15.651 29.8352C15.9207 29.7595 16.1071 29.5135 16.1071 29.2334V19.134C16.1071 18.785 16.3911 18.501 16.7402 18.501C17.0892 18.501 17.3732 18.785 17.3732 19.134V26.9344C17.3732 27.2796 17.653 27.5594 17.9982 27.5594C18.3434 27.5594 18.6232 27.2796 18.6232 26.9344V23.8857C18.6232 23.5366 18.9072 23.2526 19.2563 23.2526C19.6054 23.2526 19.8894 23.5366 19.8894 23.8857V24.3354V26.9344C19.8894 27.2795 20.1692 27.5594 20.5144 27.5594C20.8595 27.5594 21.1394 27.2795 21.1394 26.9344V24.3354V23.8857C21.1394 23.5366 21.4234 23.2526 21.7724 23.2526C22.1215 23.2526 22.4055 23.5366 22.4055 23.8857V24.8863V25.6922V26.9344C22.4055 27.2796 22.6853 27.5594 23.0305 27.5594C23.3757 27.5594 23.6555 27.2796 23.6555 26.9344V25.6922V24.8863C23.6555 24.5372 23.9395 24.2532 24.2885 24.2532C24.6376 24.2532 24.9216 24.5372 24.9216 24.8863V32.1282C24.9216 32.4734 25.2014 32.7532 25.5466 32.7532C25.8918 32.7532 26.1716 32.4734 26.1716 32.1282V24.8863C26.1716 23.848 25.3269 23.0032 24.2885 23.0032Z" fill="black"/>
<path d="M16.7401 15.1282C14.5313 15.1282 12.7344 16.9252 12.7344 19.134C12.7344 19.4792 13.0142 19.759 13.3594 19.759C13.7046 19.759 13.9844 19.4792 13.9844 19.134C13.9844 17.6144 15.2206 16.3782 16.7402 16.3782C18.2598 16.3782 19.4959 17.6144 19.4959 19.134C19.4959 19.4792 19.7757 19.759 20.1209 19.759C20.4661 19.759 20.7459 19.4792 20.7459 19.134C20.7459 16.9251 18.9489 15.1282 16.7401 15.1282Z" fill="black"/>
<path d="M22.5111 16.7154C21.5331 14.3844 19.2679 12.8782 16.7401 12.8782C13.2907 12.8782 10.4844 15.6845 10.4844 19.134C10.4844 19.4792 10.7642 19.759 11.1094 19.759C11.4546 19.759 11.7343 19.4792 11.7343 19.134C11.7343 16.3738 13.9799 14.1282 16.7401 14.1282C18.7629 14.1282 20.5757 15.3335 21.3584 17.199C21.4919 17.5173 21.8583 17.6671 22.1765 17.5335C22.4948 17.4 22.6446 17.0337 22.5111 16.7154Z" fill="black"/>
<path d="M22.3712 18.4875C22.3702 18.4875 22.3693 18.4875 22.3684 18.4875C22.0233 18.489 21.7447 18.77 21.7461 19.1152V19.134C21.7461 19.4792 22.0259 19.759 22.3711 19.759C22.7163 19.759 22.9961 19.4792 22.9961 19.134V19.1099C22.9946 18.7657 22.7151 18.4875 22.3712 18.4875Z" fill="black"/>
<path d="M16.7383 0.753906C15.4632 0.753906 14.4258 1.79128 14.4258 3.06641C14.4258 4.12497 15.1409 5.01903 16.1133 5.29241V8.76228C16.1133 9.10747 16.3931 9.38728 16.7383 9.38728C17.0835 9.38728 17.3633 9.10747 17.3633 8.76228V5.29247C18.3356 5.01909 19.0508 4.12503 19.0508 3.06647C19.0508 1.79134 18.0134 0.753906 16.7383 0.753906ZM16.7383 4.12897C16.1524 4.12897 15.6758 3.65234 15.6758 3.06647C15.6758 2.48059 16.1524 2.00397 16.7383 2.00397C17.3242 2.00397 17.8008 2.48059 17.8008 3.06647C17.8008 3.65234 17.3242 4.12897 16.7383 4.12897Z" fill="black"/>
<path d="M30.425 14.4407C29.3665 14.4407 28.4725 15.1559 28.199 16.1282H24.7285C24.3833 16.1282 24.1035 16.408 24.1035 16.7532C24.1035 17.0984 24.3833 17.3782 24.7285 17.3782H28.199C28.4725 18.3505 29.3665 19.0657 30.425 19.0657C31.7001 19.0657 32.7375 18.0283 32.7375 16.7532C32.7375 15.478 31.7001 14.4407 30.425 14.4407ZM30.425 17.8156C29.8391 17.8156 29.3625 17.339 29.3625 16.7531C29.3625 16.1672 29.8391 15.6906 30.425 15.6906C31.0109 15.6906 31.4875 16.1672 31.4875 16.7531C31.4875 17.339 31.0109 17.8156 30.425 17.8156Z" fill="black"/>
<path d="M12.3976 11.529L9.07602 8.20733C9.26877 7.86533 9.37195 7.47802 9.37195 7.07471C9.37195 6.45702 9.13139 5.87627 8.69464 5.43952C8.25789 5.00271 7.67714 4.76221 7.05945 4.76221C6.44177 4.76221 5.86108 5.00283 5.42427 5.43952C4.52264 6.34114 4.52264 7.80827 5.42427 8.70989C5.86108 9.14671 6.44177 9.38721 7.05952 9.38721C7.46289 9.38721 7.85014 9.28402 8.19214 9.09127L11.5138 12.4129C11.6358 12.5349 11.7958 12.596 11.9557 12.596C12.1156 12.596 12.2756 12.5349 12.3976 12.4129C12.6417 12.1689 12.6417 11.7731 12.3976 11.529ZM7.81095 7.82596L7.81083 7.82608L7.8107 7.82627C7.61002 8.02683 7.34333 8.13733 7.05958 8.13733C6.77577 8.13733 6.50895 8.02683 6.30827 7.82614C5.89395 7.41183 5.89395 6.73777 6.3082 6.32352C6.50889 6.12283 6.77564 6.01233 7.05952 6.01233C7.34339 6.01233 7.61014 6.12283 7.81083 6.32352C8.01152 6.52421 8.12202 6.79096 8.12202 7.07483C8.12202 7.35852 8.01158 7.62527 7.81095 7.82596Z" fill="black"/>
<path d="M17.1802 10.3113C17.0639 10.195 16.9027 10.1282 16.7383 10.1282C16.5733 10.1282 16.4127 10.195 16.2964 10.3113C16.1795 10.4275 16.1133 10.5888 16.1133 10.7532C16.1133 10.9175 16.1795 11.0788 16.2964 11.195C16.4127 11.3113 16.5739 11.3782 16.7383 11.3782C16.9027 11.3782 17.0639 11.3113 17.1802 11.195C17.2964 11.0788 17.3633 10.9175 17.3633 10.7532C17.3633 10.5888 17.2964 10.4275 17.1802 10.3113Z" fill="black"/>
<path d="M27.6262 5.67731C27.1895 5.2405 26.6087 5 25.991 5C25.3734 5 24.7926 5.24056 24.3559 5.67731C23.919 6.11406 23.6785 6.69481 23.6785 7.3125C23.6785 7.71587 23.7817 8.10313 23.9745 8.44513L20.183 12.2366C19.939 12.4806 19.939 12.8764 20.183 13.1205C20.3051 13.2426 20.4651 13.3036 20.625 13.3036C20.785 13.3036 20.945 13.2426 21.067 13.1205L24.8584 9.32906C25.2004 9.52187 25.5877 9.625 25.991 9.625C26.6087 9.625 27.1895 9.38444 27.6262 8.94769C28.5279 8.04613 28.5279 6.579 27.6262 5.67731ZM26.7424 8.06387C26.5417 8.26456 26.275 8.37506 25.9911 8.37506C25.7074 8.37506 25.4407 8.26463 25.24 8.064L25.2399 8.06387L25.2397 8.06375C25.0391 7.86306 24.9286 7.59637 24.9286 7.31262C24.9285 7.02875 25.0391 6.762 25.2398 6.56125C25.4405 6.36056 25.7072 6.25006 25.9911 6.25006C26.275 6.25006 26.5417 6.36056 26.7424 6.56125C27.1567 6.9755 27.1567 7.6495 26.7424 8.06387Z" fill="black"/>
<path d="M8.73828 16.1282H5.27678C5.00334 15.1559 4.10934 14.4407 3.05078 14.4407C1.77566 14.4407 0.738281 15.478 0.738281 16.7532C0.738281 18.0283 1.77566 19.0657 3.05078 19.0657C4.10934 19.0657 5.00334 18.3505 5.27678 17.3782H8.73828C9.08347 17.3782 9.36328 17.0984 9.36328 16.7532C9.36328 16.408 9.08347 16.1282 8.73828 16.1282ZM3.05078 17.8156C2.46491 17.8156 1.98828 17.339 1.98828 16.7531C1.98828 16.1672 2.46491 15.6906 3.05078 15.6906C3.63666 15.6906 4.11328 16.1672 4.11328 16.7531C4.11328 17.339 3.63666 17.8156 3.05078 17.8156Z" fill="black"/>
</g>
<defs>
<clipPath id="clip0_2273_12371">
<rect width="32" height="32" fill="white" transform="translate(0.738281 0.753662)"/>
</clipPath>
</defs>
</svg>
