<svg width="32" height="32" viewBox="0 0 32 32" fill="none" xmlns="http://www.w3.org/2000/svg">
<g clip-path="url(#clip0_2273_12101)">
<path d="M23.5503 22.2496C23.2743 22.2496 23.0122 22.3098 22.7758 22.4169C22.4936 21.7323 21.8194 21.2489 21.0341 21.2489C20.551 21.2489 20.1098 21.432 19.7761 21.7323C19.4423 21.432 19.0012 21.2489 18.518 21.2489C18.296 21.2489 18.083 21.2878 17.885 21.3588V18.3804C17.885 17.3421 17.0402 16.4973 16.0019 16.4973C14.9636 16.4973 14.1188 17.3421 14.1188 18.3804V26.2533L13.7596 25.6638C13.2051 24.754 12.048 24.4587 11.1255 24.9914C10.2479 25.4981 9.90558 26.6098 10.3462 27.5223L12.3373 31.6464C12.4451 31.8696 12.6682 31.9998 12.9006 31.9998C12.9917 31.9998 13.0843 31.9798 13.1718 31.9375C13.4827 31.7874 13.613 31.4138 13.463 31.1029L11.4719 26.9788C11.3143 26.6526 11.4367 26.2552 11.7505 26.074C12.0804 25.8836 12.494 25.9891 12.6922 26.3144L14.2101 28.805C14.356 29.0442 14.6431 29.1572 14.9128 29.0815C15.1825 29.0058 15.3688 28.7599 15.3688 28.4798V18.3804C15.3688 18.0313 15.6528 17.7473 16.0019 17.7473C16.351 17.7473 16.635 18.0313 16.635 18.3804V26.1808C16.635 26.5259 16.9148 26.8058 17.26 26.8058C17.6051 26.8058 17.885 26.5259 17.885 26.1808V23.132C17.885 22.7829 18.169 22.4989 18.518 22.4989C18.8671 22.4989 19.1511 22.7829 19.1511 23.132V23.5817V26.1807C19.1511 26.5259 19.4309 26.8057 19.7761 26.8057C20.1213 26.8057 20.4011 26.5259 20.4011 26.1807V23.5817V23.132C20.4011 22.7829 20.6851 22.4989 21.0341 22.4989C21.3832 22.4989 21.6672 22.7829 21.6672 23.132V24.1326V24.9385V26.1808C21.6672 26.5259 21.947 26.8058 22.2922 26.8058C22.6374 26.8058 22.9172 26.5259 22.9172 26.1808V24.9385V24.1326C22.9172 23.7836 23.2012 23.4996 23.5503 23.4996C23.8993 23.4996 24.1833 23.7836 24.1833 24.1326V31.3746C24.1833 31.7198 24.4631 31.9996 24.8083 31.9996C25.1535 31.9996 25.4333 31.7198 25.4333 31.3746V24.1326C25.4333 23.0944 24.5886 22.2496 23.5503 22.2496Z" fill="white"/>
<path d="M16.0018 14.3745C13.793 14.3745 11.9961 16.1715 11.9961 18.3803C11.9961 18.7255 12.2759 19.0053 12.6211 19.0053C12.9663 19.0053 13.2461 18.7255 13.2461 18.3803C13.2461 16.8608 14.4823 15.6245 16.0019 15.6245C17.5215 15.6245 18.7577 16.8608 18.7577 18.3803C18.7577 18.7255 19.0375 19.0053 19.3827 19.0053C19.7278 19.0053 20.0077 18.7255 20.0077 18.3803C20.0077 16.1714 18.2107 14.3745 16.0018 14.3745Z" fill="white"/>
<path d="M21.7728 15.9618C20.7948 13.6307 18.5296 12.1245 16.0018 12.1245C12.5524 12.1245 9.74609 14.9308 9.74609 18.3803C9.74609 18.7255 10.0259 19.0053 10.3711 19.0053C10.7163 19.0053 10.996 18.7255 10.996 18.3803C10.996 15.6201 13.2416 13.3745 16.0018 13.3745C18.0247 13.3745 19.8374 14.5799 20.6201 16.4453C20.7537 16.7636 21.12 16.9134 21.4382 16.7799C21.7565 16.6463 21.9063 16.28 21.7728 15.9618Z" fill="white"/>
<path d="M21.6329 17.7339C21.6319 17.7339 21.6311 17.7339 21.6301 17.7339C21.285 17.7354 21.0064 18.0164 21.0078 18.3616V18.3803C21.0078 18.7255 21.2876 19.0053 21.6328 19.0053C21.978 19.0053 22.2578 18.7255 22.2578 18.3803V18.3562C22.2563 18.012 21.9768 17.7339 21.6329 17.7339Z" fill="white"/>
<path d="M16 0.000244141C14.7249 0.000244141 13.6875 1.03762 13.6875 2.31274C13.6875 3.37131 14.4026 4.26537 15.375 4.53874V8.00862C15.375 8.35381 15.6548 8.63362 16 8.63362C16.3452 8.63362 16.625 8.35381 16.625 8.00862V4.53881C17.5973 4.26543 18.3125 3.37137 18.3125 2.31281C18.3125 1.03768 17.2751 0.000244141 16 0.000244141ZM16 3.37531C15.4141 3.37531 14.9375 2.89868 14.9375 2.31281C14.9375 1.72693 15.4141 1.25031 16 1.25031C16.5859 1.25031 17.0625 1.72693 17.0625 2.31281C17.0625 2.89868 16.5859 3.37531 16 3.37531Z" fill="white"/>
<path d="M29.6867 13.687C28.6282 13.687 27.7342 14.4022 27.4607 15.3745H23.9902C23.645 15.3745 23.3652 15.6543 23.3652 15.9995C23.3652 16.3447 23.645 16.6245 23.9902 16.6245H27.4607C27.7342 17.5968 28.6282 18.312 29.6867 18.312C30.9619 18.312 31.9992 17.2746 31.9992 15.9995C31.9992 14.7243 30.9619 13.687 29.6867 13.687ZM29.6867 17.0619C29.1009 17.0619 28.6242 16.5853 28.6242 15.9994C28.6242 15.4136 29.1009 14.9369 29.6867 14.9369C30.2726 14.9369 30.7492 15.4136 30.7492 15.9994C30.7492 16.5853 30.2726 17.0619 29.6867 17.0619Z" fill="white"/>
<path d="M11.6594 10.7753L8.33773 7.45367C8.53048 7.11167 8.63367 6.72436 8.63367 6.32104C8.63367 5.70336 8.39311 5.12261 7.95636 4.68586C7.51961 4.24904 6.93886 4.00854 6.32117 4.00854C5.70348 4.00854 5.1228 4.24917 4.68598 4.68586C3.78436 5.58748 3.78436 7.05461 4.68598 7.95623C5.1228 8.39304 5.70348 8.63354 6.32123 8.63354C6.72461 8.63354 7.11186 8.53036 7.45386 8.33761L10.7755 11.6592C10.8975 11.7812 11.0575 11.8423 11.2174 11.8423C11.3774 11.8423 11.5374 11.7812 11.6594 11.6592C11.9034 11.4152 11.9034 11.0194 11.6594 10.7753ZM7.07267 7.07229L7.07255 7.07242L7.07242 7.07261C6.87173 7.27317 6.60505 7.38367 6.3213 7.38367C6.03748 7.38367 5.77067 7.27317 5.56998 7.07248C5.15567 6.65817 5.15567 5.98411 5.56992 5.56986C5.77061 5.36917 6.03736 5.25867 6.32123 5.25867C6.60511 5.25867 6.87186 5.36917 7.07255 5.56986C7.27323 5.77054 7.38373 6.03729 7.38373 6.32117C7.38373 6.60486 7.2733 6.87161 7.07267 7.07229Z" fill="white"/>
<path d="M16.4419 9.55764C16.3256 9.44139 16.1644 9.37451 16 9.37451C15.835 9.37451 15.6744 9.44139 15.5581 9.55764C15.4412 9.67389 15.375 9.83514 15.375 9.99951C15.375 10.1639 15.4412 10.3251 15.5581 10.4414C15.6744 10.5576 15.8356 10.6245 16 10.6245C16.1644 10.6245 16.3256 10.5576 16.4419 10.4414C16.5581 10.3251 16.625 10.1639 16.625 9.99951C16.625 9.83514 16.5581 9.67382 16.4419 9.55764Z" fill="white"/>
<path d="M27.3137 4.68586C26.877 4.24904 26.2962 4.00854 25.6785 4.00854C25.0609 4.00854 24.4801 4.24911 24.0434 4.68586C23.6065 5.12261 23.366 5.70336 23.366 6.32104C23.366 6.72442 23.4692 7.11167 23.662 7.45367L19.8705 11.2451C19.6265 11.4892 19.6265 11.8849 19.8705 12.129C19.9926 12.2511 20.1526 12.3121 20.3125 12.3121C20.4725 12.3121 20.6325 12.2511 20.7545 12.129L24.5459 8.33761C24.8879 8.53042 25.2752 8.63354 25.6785 8.63354C26.2962 8.63354 26.877 8.39298 27.3137 7.95623C28.2154 7.05467 28.2154 5.58754 27.3137 4.68586ZM26.4299 7.07242C26.2292 7.27311 25.9625 7.38361 25.6786 7.38361C25.3949 7.38361 25.1282 7.27317 24.9275 7.07255L24.9274 7.07242L24.9272 7.07229C24.7266 6.87161 24.6161 6.60492 24.6161 6.32117C24.616 6.03729 24.7266 5.77054 24.9273 5.56979C25.128 5.36911 25.3947 5.25861 25.6786 5.25861C25.9625 5.25861 26.2292 5.36911 26.4299 5.56979C26.8442 5.98404 26.8442 6.65804 26.4299 7.07242Z" fill="white"/>
<path d="M8 15.3745H4.5385C4.26506 14.4022 3.37106 13.687 2.3125 13.687C1.03737 13.687 0 14.7244 0 15.9995C0 17.2746 1.03737 18.312 2.3125 18.312C3.37106 18.312 4.26506 17.5968 4.5385 16.6245H8C8.34519 16.6245 8.625 16.3447 8.625 15.9995C8.625 15.6543 8.34519 15.3745 8 15.3745ZM2.3125 17.0619C1.72662 17.0619 1.25 16.5853 1.25 15.9994C1.25 15.4136 1.72662 14.9369 2.3125 14.9369C2.89838 14.9369 3.375 15.4136 3.375 15.9994C3.375 16.5853 2.89838 17.0619 2.3125 17.0619Z" fill="white"/>
</g>
<defs>
<clipPath id="clip0_2273_12101">
<rect width="32" height="32" fill="white"/>
</clipPath>
</defs>
</svg>
