<svg width="33" height="33" viewBox="0 0 33 33" fill="none" xmlns="http://www.w3.org/2000/svg">
<g clip-path="url(#clip0_2273_11632)">
<path d="M22.4385 19.1024L17.9768 15.7562V8.93981C17.9768 8.25444 17.4228 7.70044 16.7374 7.70044C16.052 7.70044 15.498 8.25444 15.498 8.93981V16.3759C15.498 16.7663 15.6815 17.1344 15.9938 17.3674L20.9512 21.0855C21.1742 21.2528 21.4345 21.3334 21.6935 21.3334C22.0715 21.3334 22.4434 21.1636 22.6863 20.8364C23.0979 20.2898 22.9863 19.5127 22.4385 19.1024Z" fill="black"/>
<path d="M16.7383 0.276855C7.91534 0.276855 0.738281 7.45392 0.738281 16.2769C0.738281 25.0998 7.91534 32.2769 16.7383 32.2769C25.5612 32.2769 32.7383 25.0998 32.7383 16.2769C32.7383 7.45392 25.5612 0.276855 16.7383 0.276855ZM16.7383 29.7982C9.28359 29.7982 3.21697 23.7315 3.21697 16.2769C3.21697 8.82217 9.28359 2.75554 16.7383 2.75554C24.1942 2.75554 30.2596 8.82217 30.2596 16.2769C30.2596 23.7315 24.193 29.7982 16.7383 29.7982Z" fill="black"/>
</g>
<defs>
<clipPath id="clip0_2273_11632">
<rect width="32" height="32" fill="white" transform="translate(0.738281 0.276855)"/>
</clipPath>
</defs>
</svg>
