<svg width="32" height="32" viewBox="0 0 32 32" fill="none" xmlns="http://www.w3.org/2000/svg">
<g clip-path="url(#clip0_2273_13113)">
<path d="M25.8218 2.4643H24.6282V1.25652C24.6282 0.566456 24.0688 0.00708008 23.3788 0.00708008C22.6887 0.00708008 22.1293 0.566456 22.1293 1.25652V2.4643H9.8706V1.25652C9.8706 0.566456 9.31123 0.00708008 8.62116 0.00708008C7.93109 0.00708008 7.37172 0.566456 7.37172 1.25652V2.4643H6.17819C2.77152 2.4643 0 5.23581 0 8.64242V25.8146C0 29.2213 2.77152 31.9928 6.17819 31.9928H25.8219C29.2285 31.9928 32 29.2213 32 25.8146V8.64242C32 5.23581 29.2285 2.4643 25.8218 2.4643ZM6.17819 4.96319H7.37172V7.3996C7.37172 8.08967 7.93109 8.64904 8.62116 8.64904C9.31123 8.64904 9.8706 8.08967 9.8706 7.3996V4.96319H22.1294V7.3996C22.1294 8.08967 22.6888 8.64904 23.3788 8.64904C24.0689 8.64904 24.6283 8.08967 24.6283 7.3996V4.96319H25.8219C27.8506 4.96319 29.5011 6.6137 29.5011 8.64242V9.83602H2.49889V8.64242C2.49889 6.6137 4.1494 4.96319 6.17819 4.96319ZM25.8218 29.4939H6.17819C4.1494 29.4939 2.49889 27.8434 2.49889 25.8146V12.3349H29.5011V25.8146C29.5011 27.8434 27.8506 29.4939 25.8218 29.4939ZM11.0992 17.2494C11.0992 17.9395 10.5399 18.4988 9.8498 18.4988H7.39258C6.70251 18.4988 6.14314 17.9395 6.14314 17.2494C6.14314 16.5593 6.70251 16 7.39258 16H9.8498C10.5398 16 11.0992 16.5593 11.0992 17.2494ZM25.8569 17.2494C25.8569 17.9395 25.2975 18.4988 24.6075 18.4988H22.1503C21.4602 18.4988 20.9008 17.9395 20.9008 17.2494C20.9008 16.5593 21.4602 16 22.1503 16H24.6075C25.2975 16 25.8569 16.5593 25.8569 17.2494ZM18.471 17.2494C18.471 17.9395 17.9116 18.4988 17.2215 18.4988H14.7643C14.0742 18.4988 13.5149 17.9395 13.5149 17.2494C13.5149 16.5593 14.0742 16 14.7643 16H17.2215C17.9115 16 18.471 16.5593 18.471 17.2494ZM11.0992 24.6211C11.0992 25.3112 10.5399 25.8706 9.8498 25.8706H7.39258C6.70251 25.8706 6.14314 25.3112 6.14314 24.6211C6.14314 23.9311 6.70251 23.3717 7.39258 23.3717H9.8498C10.5398 23.3717 11.0992 23.9311 11.0992 24.6211ZM25.8569 24.6211C25.8569 25.3112 25.2975 25.8706 24.6075 25.8706H22.1503C21.4602 25.8706 20.9008 25.3112 20.9008 24.6211C20.9008 23.9311 21.4602 23.3717 22.1503 23.3717H24.6075C25.2975 23.3717 25.8569 23.9311 25.8569 24.6211ZM18.471 24.6211C18.471 25.3112 17.9116 25.8706 17.2215 25.8706H14.7643C14.0742 25.8706 13.5149 25.3112 13.5149 24.6211C13.5149 23.9311 14.0742 23.3717 14.7643 23.3717H17.2215C17.9115 23.3717 18.471 23.9311 18.471 24.6211Z" fill="white"/>
</g>
<defs>
<clipPath id="clip0_2273_13113">
<rect width="32" height="32" fill="white"/>
</clipPath>
</defs>
</svg>
