<svg width="33" height="33" viewBox="0 0 33 33" fill="none" xmlns="http://www.w3.org/2000/svg">
<g clip-path="url(#clip0_2273_10726)">
<path d="M9.23828 3.34595C9.92866 3.34595 10.4883 2.78632 10.4883 2.09595C10.4883 1.40557 9.92866 0.845947 9.23828 0.845947C8.27859 0.845947 7.40228 1.20876 6.73828 1.80388C6.07428 1.20876 5.19797 0.845947 4.23828 0.845947C3.54791 0.845947 2.98828 1.40557 2.98828 2.09595C2.98828 2.78632 3.54791 3.34595 4.23828 3.34595C4.92753 3.34595 5.48828 3.9067 5.48828 4.59595V15.5959H4.23828C3.54791 15.5959 2.98828 16.1556 2.98828 16.8459C2.98828 17.5363 3.54791 18.0959 4.23828 18.0959H5.48828V29.0959C5.48828 29.7852 4.92753 30.3459 4.23828 30.3459C3.54791 30.3459 2.98828 30.9056 2.98828 31.5959C2.98828 32.2863 3.54791 32.8459 4.23828 32.8459C5.19797 32.8459 6.07428 32.4831 6.73828 31.888C7.40228 32.4831 8.27859 32.8459 9.23828 32.8459C9.92866 32.8459 10.4883 32.2863 10.4883 31.5959C10.4883 30.9056 9.92866 30.3459 9.23828 30.3459C8.54903 30.3459 7.98828 29.7852 7.98828 29.0959V18.0959H9.23828C9.92866 18.0959 10.4883 17.5363 10.4883 16.8459C10.4883 16.1556 9.92866 15.5959 9.23828 15.5959H7.98828V4.59595C7.98828 3.9067 8.54903 3.34595 9.23828 3.34595Z" fill="black"/>
<path d="M14.2383 10.5959H29.2383C29.9287 10.5959 30.4883 10.0363 30.4883 9.34595C30.4883 8.65557 29.9287 8.09595 29.2383 8.09595H14.2383C13.5479 8.09595 12.9883 8.65557 12.9883 9.34595C12.9883 10.0363 13.5479 10.5959 14.2383 10.5959Z" fill="black"/>
<path d="M14.2383 15.5959H24.2383C24.9287 15.5959 25.4883 15.0363 25.4883 14.3459C25.4883 13.6556 24.9287 13.0959 24.2383 13.0959H14.2383C13.5479 13.0959 12.9883 13.6556 12.9883 14.3459C12.9883 15.0363 13.5479 15.5959 14.2383 15.5959Z" fill="black"/>
<path d="M29.2383 18.0959H14.2383C13.5479 18.0959 12.9883 18.6556 12.9883 19.3459C12.9883 20.0363 13.5479 20.5959 14.2383 20.5959H29.2383C29.9287 20.5959 30.4883 20.0363 30.4883 19.3459C30.4883 18.6556 29.9287 18.0959 29.2383 18.0959Z" fill="black"/>
<path d="M24.2383 23.0959H14.2383C13.5479 23.0959 12.9883 23.6556 12.9883 24.3459C12.9883 25.0363 13.5479 25.5959 14.2383 25.5959H24.2383C24.9287 25.5959 25.4883 25.0363 25.4883 24.3459C25.4883 23.6556 24.9287 23.0959 24.2383 23.0959Z" fill="black"/>
</g>
<defs>
<clipPath id="clip0_2273_10726">
<rect width="32" height="32" fill="white" transform="translate(0.738281 0.845947)"/>
</clipPath>
</defs>
</svg>
