<svg width="32" height="32" viewBox="0 0 32 32" fill="none" xmlns="http://www.w3.org/2000/svg">
<path d="M8.5 2.5C9.19037 2.5 9.75 1.94037 9.75 1.25C9.75 0.559625 9.19037 0 8.5 0C7.54031 0 6.664 0.362812 6 0.957937C5.336 0.362812 4.45969 0 3.5 0C2.80963 0 2.25 0.559625 2.25 1.25C2.25 1.94037 2.80963 2.5 3.5 2.5C4.18925 2.5 4.75 3.06075 4.75 3.75V14.75H3.5C2.80963 14.75 2.25 15.3096 2.25 16C2.25 16.6904 2.80963 17.25 3.5 17.25H4.75V28.25C4.75 28.9393 4.18925 29.5 3.5 29.5C2.80963 29.5 2.25 30.0596 2.25 30.75C2.25 31.4404 2.80963 32 3.5 32C4.45969 32 5.336 31.6372 6 31.0421C6.664 31.6372 7.54031 32 8.5 32C9.19037 32 9.75 31.4404 9.75 30.75C9.75 30.0596 9.19037 29.5 8.5 29.5C7.81075 29.5 7.25 28.9393 7.25 28.25V17.25H8.5C9.19037 17.25 9.75 16.6904 9.75 16C9.75 15.3096 9.19037 14.75 8.5 14.75H7.25V3.75C7.25 3.06075 7.81075 2.5 8.5 2.5Z" fill="white"/>
<path d="M13.5 9.75H28.5C29.1904 9.75 29.75 9.19037 29.75 8.5C29.75 7.80963 29.1904 7.25 28.5 7.25H13.5C12.8096 7.25 12.25 7.80963 12.25 8.5C12.25 9.19037 12.8096 9.75 13.5 9.75Z" fill="white"/>
<path d="M13.5 14.75H23.5C24.1904 14.75 24.75 14.1904 24.75 13.5C24.75 12.8096 24.1904 12.25 23.5 12.25H13.5C12.8096 12.25 12.25 12.8096 12.25 13.5C12.25 14.1904 12.8096 14.75 13.5 14.75Z" fill="white"/>
<path d="M28.5 17.25H13.5C12.8096 17.25 12.25 17.8096 12.25 18.5C12.25 19.1904 12.8096 19.75 13.5 19.75H28.5C29.1904 19.75 29.75 19.1904 29.75 18.5C29.75 17.8096 29.1904 17.25 28.5 17.25Z" fill="white"/>
<path d="M23.5 22.25H13.5C12.8096 22.25 12.25 22.8096 12.25 23.5C12.25 24.1904 12.8096 24.75 13.5 24.75H23.5C24.1904 24.75 24.75 24.1904 24.75 23.5C24.75 22.8096 24.1904 22.25 23.5 22.25Z" fill="white"/>
</svg>
