<svg width="33" height="33" viewBox="0 0 33 33" fill="none" xmlns="http://www.w3.org/2000/svg">
<path d="M13.0568 6.01975H20.9333C21.1848 6.01975 21.3905 5.81864 21.3905 5.56261C21.3905 5.31105 21.1848 5.10547 20.9333 5.10547H13.0568C12.8054 5.10547 12.5996 5.31105 12.5996 5.56261C12.5996 5.81864 12.8054 6.01975 13.0568 6.01975Z" fill="black"/>
<path d="M13.0568 8.19554H17.3585C17.6099 8.19554 17.8157 7.98996 17.8157 7.73839C17.8157 7.48237 17.6099 7.28125 17.3585 7.28125H13.0568C12.8054 7.28125 12.5996 7.48237 12.5996 7.73839C12.5996 7.98996 12.8054 8.19554 13.0568 8.19554Z" fill="black"/>
<path d="M8.87048 10.3396H6.34247C5.64302 10.3396 5.07617 10.9066 5.07617 11.6059V14.0242C5.07617 14.7238 5.64302 15.2905 6.34247 15.2905H8.87048C9.56535 15.2905 10.1322 14.7238 10.1322 14.0242V11.6059C10.1322 10.9066 9.56535 10.3396 8.87048 10.3396ZM9.21791 14.0242C9.21791 14.2162 9.06256 14.3762 8.87048 14.3762H6.34247C6.1505 14.3762 5.99046 14.2162 5.99046 14.0242V11.6059C5.99046 11.4095 6.1505 11.2539 6.34247 11.2539H8.87048C9.06256 11.2539 9.21791 11.4095 9.21791 11.6059V14.0242Z" fill="black"/>
<path d="M13.0568 12.0996H20.9333C21.1848 12.0996 21.3905 11.8938 21.3905 11.6424C21.3905 11.3911 21.1848 11.1853 20.9333 11.1853H13.0568C12.8054 11.1853 12.5996 11.3911 12.5996 11.6424C12.5996 11.8938 12.8054 12.0996 13.0568 12.0996Z" fill="black"/>
<path d="M17.8157 13.8138C17.8157 13.5625 17.6099 13.3567 17.3585 13.3567H13.0568C12.8054 13.3567 12.5996 13.5625 12.5996 13.8138C12.5996 14.0652 12.8054 14.271 13.0568 14.271H17.3585C17.6099 14.271 17.8157 14.0652 17.8157 13.8138Z" fill="black"/>
<path d="M8.87048 16.415H6.34247C5.64302 16.415 5.07617 16.982 5.07617 17.6813V20.1043C5.07617 20.7992 5.64302 21.3659 6.34247 21.3659H8.87048C9.56535 21.3659 10.1322 20.7992 10.1322 20.1043V17.6813C10.1322 16.982 9.56535 16.415 8.87048 16.415Z" fill="black"/>
<path d="M8.87048 4.25952H6.34247C5.64302 4.25952 5.07617 4.83095 5.07617 5.52582V7.94858C5.07617 8.64345 5.64302 9.21041 6.34247 9.21041H8.87048C9.56535 9.21041 10.1322 8.64345 10.1322 7.94858V5.52582C10.1322 4.83095 9.56535 4.25952 8.87048 4.25952Z" fill="black"/>
<path d="M8.87048 22.4951H6.34247C5.64302 22.4951 5.07617 23.0619 5.07617 23.7567V26.1795C5.07617 26.879 5.64302 27.446 6.34247 27.446H8.87048C9.56535 27.446 10.1322 26.879 10.1322 26.1795V23.7567C10.1322 23.0619 9.56535 22.4951 8.87048 22.4951ZM9.21791 26.1795C9.21791 26.3717 9.06256 26.5317 8.87048 26.5317H6.34247C6.1505 26.5317 5.99046 26.3717 5.99046 26.1795V23.7567C5.99046 23.5648 6.1505 23.4094 6.34247 23.4094H8.87048C9.06256 23.4094 9.21791 23.5648 9.21791 23.7567V26.1795Z" fill="black"/>
<path d="M30.8092 25.0766L29.68 23.7371C29.3692 23.3714 28.8663 23.2663 28.4458 23.4491C28.2366 23.0153 27.507 20.4341 24.8983 17.3007C24.6652 17.0263 24.3725 16.8252 24.048 16.7337V4.46406C24.048 3.10625 22.9417 2 21.584 2H4.46406C3.10636 2 2 3.10625 2 4.46406V27.2938C2 28.6513 3.10636 29.7578 4.46406 29.7578H21.584C21.8903 29.7578 22.1829 29.7029 22.4527 29.5978C22.48 29.648 22.5166 29.6982 22.5578 29.7484L23.6915 31.0879C24.0664 31.5495 24.7552 31.5871 25.1908 31.2161L30.6812 26.5806C31.1447 26.1846 31.1767 25.5175 30.8092 25.0766ZM21.584 28.8435H4.46406C3.60915 28.8435 2.91429 28.1484 2.91429 27.2938V4.46406C2.91429 3.60915 3.60915 2.91429 4.46406 2.91429H21.584C22.4388 2.91429 23.1337 3.60915 23.1337 4.46406V16.7246C22.8229 16.8022 22.4892 16.9897 22.1646 17.3417C21.9269 17.2136 21.68 17.1589 21.4286 17.1817C20.967 17.2228 20.5234 17.5154 20.08 18.0732C19.8469 18.0228 19.5955 18.0411 19.3487 18.1279C18.9738 18.256 18.6355 18.5257 18.3749 18.896L16.0206 16.0388C15.4659 15.3651 14.5116 15.3249 13.904 15.8333C13.2512 16.3705 13.1829 17.328 13.7121 17.9498L18.5943 23.792L16.9304 23.4949C16.0069 23.3348 15.1154 23.952 14.9509 24.8754C14.7908 25.7531 15.344 26.6125 16.2035 26.8366L22.4846 28.4685C22.4527 28.5143 22.4252 28.5554 22.4069 28.6056H22.4023C22.1646 28.7565 21.8857 28.8435 21.584 28.8435ZM27.6641 23.9565C21.3407 29.2947 29.4554 22.4448 23.2115 27.7143C13.9151 25.2947 17.1287 26.1311 16.432 25.9498C16.0344 25.8491 15.7783 25.4469 15.8515 25.04C15.9201 24.656 16.2538 24.3864 16.6331 24.3864C16.802 24.3864 16.7785 24.4039 19.6732 24.9121C19.8606 24.944 20.0527 24.8571 20.1487 24.6879C20.2446 24.5234 20.2263 24.3132 20.1029 24.1667L14.4115 17.3645C14.2129 17.13 14.2301 16.7526 14.4846 16.5371C14.7331 16.3348 15.1035 16.3578 15.3166 16.6194C15.3663 16.6795 19.9812 22.2584 20.0435 22.3337C20.1962 22.5185 20.4834 22.5601 20.6835 22.3931C20.88 22.2286 20.9075 21.9406 20.7429 21.7484L18.9921 19.6458C19.1823 19.2704 19.5855 18.8663 19.9201 18.9783L21.8218 21.2594C21.981 21.4507 22.2608 21.4811 22.4663 21.319C22.6583 21.1589 22.6857 20.8663 22.5212 20.6743L20.8115 18.6217C21.5848 17.6653 21.868 18.2778 21.9452 18.3154C22.8317 19.3783 23.8035 20.5434 23.76 20.4913C23.9192 20.6808 24.1968 20.7149 24.4046 20.5509C24.5967 20.3864 24.6241 20.0982 24.4595 19.9062C23.2186 18.4107 22.8065 17.9181 22.8366 17.9542C23.3265 17.4217 23.8788 17.5062 24.1943 17.8857C26.6648 20.8502 27.4133 23.4326 27.6641 23.9565ZM28.6331 26.6217C28.1747 26.7425 27.7475 26.361 27.7967 25.8949C27.8705 25.3985 28.4255 25.1961 28.784 25.4056C28.9461 25.4869 29.0586 25.661 29.0994 25.808C29.1903 26.1351 29.0006 26.52 28.6331 26.6217Z" fill="black"/>
</svg>
