<svg width="32" height="32" viewBox="0 0 32 32" fill="none" xmlns="http://www.w3.org/2000/svg">
<path fill-rule="evenodd" clip-rule="evenodd" d="M17.3346 13.6422H12.668C12.1157 13.6422 11.668 13.2123 11.668 12.6822C11.668 12.152 12.1157 11.7222 12.668 11.7222H17.3346C17.8869 11.7222 18.3346 12.152 18.3346 12.6822C18.3346 13.2123 17.8869 13.6422 17.3346 13.6422Z" fill="white"/>
<path fill-rule="evenodd" clip-rule="evenodd" d="M5.66797 24.2022C5.66797 23.672 6.11569 23.2422 6.66797 23.2422H25.3346C25.8869 23.2422 26.3346 23.672 26.3346 24.2022C26.3346 24.7324 25.8869 25.1622 25.3346 25.1622H6.66797C6.11569 25.1622 5.66797 24.7324 5.66797 24.2022Z" fill="white"/>
<path fill-rule="evenodd" clip-rule="evenodd" d="M5.33398 16.4568C5.33398 15.9267 5.7817 15.4968 6.33398 15.4968H25.0007C25.5529 15.4968 26.0007 15.9267 26.0007 16.4568C26.0007 16.987 25.5529 17.4168 25.0007 17.4168H6.33398C5.7817 17.4168 5.33398 16.987 5.33398 16.4568Z" fill="white"/>
<path fill-rule="evenodd" clip-rule="evenodd" d="M5.66797 20.3621C5.66797 19.8319 6.11569 19.4021 6.66797 19.4021H16.0013C16.5536 19.4021 17.0013 19.8319 17.0013 20.3621C17.0013 20.8923 16.5536 21.3221 16.0013 21.3221H6.66797C6.11569 21.3221 5.66797 20.8923 5.66797 20.3621ZM19.0013 20.3621C19.0013 19.8319 19.449 19.4021 20.0013 19.4021H25.3346C25.8869 19.4021 26.3346 19.8319 26.3346 20.3621C26.3346 20.8923 25.8869 21.3221 25.3346 21.3221H20.0013C19.449 21.3221 19.0013 20.8923 19.0013 20.3621Z" fill="white"/>
<path fill-rule="evenodd" clip-rule="evenodd" d="M5.79989 7.08593C6.07391 6.62559 6.68476 6.46565 7.16428 6.7287L10.818 8.73303C11.9377 9.34726 11.9377 10.8972 10.818 11.5114L7.16428 13.5157C6.68476 13.7788 6.07391 13.6188 5.79989 13.1585C5.52589 12.6982 5.69248 12.1118 6.172 11.8487L9.31924 10.1222L6.172 8.39574C5.69248 8.13268 5.52589 7.54626 5.79989 7.08593Z" fill="white"/>
</svg>
