<svg width="33" height="33" viewBox="0 0 33 33" fill="none" xmlns="http://www.w3.org/2000/svg">
<g clip-path="url(#clip0_2273_10304)">
<path fill-rule="evenodd" clip-rule="evenodd" d="M19.2872 12.1381H12.1761C11.3346 12.1381 10.6523 11.397 10.6523 10.4829C10.6523 9.56881 11.3346 8.82776 12.1761 8.82776H19.2872C20.1287 8.82776 20.811 9.56878 20.811 10.4829C20.811 11.397 20.1287 12.1381 19.2872 12.1381Z" fill="#14261C"/>
<path fill-rule="evenodd" clip-rule="evenodd" d="M1.50977 30.3449C1.50977 29.4308 2.192 28.6897 3.03356 28.6897H31.4778C32.3193 28.6897 33.0016 29.4308 33.0016 30.3449C33.0016 31.2589 32.3193 32 31.4778 32H3.03356C2.192 32 1.50977 31.2589 1.50977 30.3449Z" fill="#14261C"/>
<path fill-rule="evenodd" clip-rule="evenodd" d="M1 16.991C1 16.0769 1.68223 15.3358 2.5238 15.3358H30.968C31.8096 15.3358 32.4918 16.0769 32.4918 16.991C32.4918 17.9051 31.8096 18.6461 30.968 18.6461H2.5238C1.68223 18.6461 1 17.9051 1 16.991Z" fill="#14261C"/>
<path fill-rule="evenodd" clip-rule="evenodd" d="M1.50977 23.7242C1.50977 22.8102 2.192 22.0691 3.03356 22.0691H17.2557C18.0972 22.0691 18.7795 22.8102 18.7795 23.7242C18.7795 24.6383 18.0972 25.3794 17.2557 25.3794H3.03356C2.192 25.3794 1.50977 24.6383 1.50977 23.7242ZM21.8271 23.7242C21.8271 22.8102 22.5093 22.0691 23.3509 22.0691H31.4778C32.3193 22.0691 33.0016 22.8102 33.0016 23.7242C33.0016 24.6383 32.3193 25.3794 31.4778 25.3794H23.3509C22.5093 25.3794 21.8271 24.6383 21.8271 23.7242Z" fill="#14261C"/>
<path fill-rule="evenodd" clip-rule="evenodd" d="M1.71079 0.834259C2.12833 0.0405778 3.05915 -0.235171 3.78984 0.218364L9.35737 3.67407C11.0636 4.73308 11.0636 7.40532 9.35737 8.46434L3.78984 11.9201C3.05915 12.3736 2.12833 12.0977 1.71079 11.3041C1.29327 10.5105 1.54711 9.4994 2.27781 9.04587L7.07356 6.06919L2.27781 3.09253C1.54711 2.639 1.29327 1.62794 1.71079 0.834259Z" fill="#14261C"/>
</g>
<defs>
<clipPath id="clip0_2273_10304">
<rect width="32" height="32" fill="white" transform="translate(0.738281 0.369263)"/>
</clipPath>
</defs>
</svg>
