<svg width="30" height="33" viewBox="0 0 30 33" fill="none" xmlns="http://www.w3.org/2000/svg">
<path d="M16.4258 12.3557H26.6758C27.1935 12.3557 27.6133 11.936 27.6133 11.4182V1.16821C27.6133 0.650463 27.1935 0.230713 26.6758 0.230713H16.4258C15.908 0.230713 15.4883 0.650463 15.4883 1.16821V11.4182C15.4883 11.936 15.908 12.3557 16.4258 12.3557ZM17.3633 2.10571H25.7383V10.4807H17.3633V2.10571Z" fill="black"/>
<path d="M11.9258 0.230713H1.67578C1.15803 0.230713 0.738281 0.650463 0.738281 1.16821V11.4182C0.738281 11.936 1.15803 12.3557 1.67578 12.3557H11.9258C12.4435 12.3557 12.8633 11.936 12.8633 11.4182V1.16821C12.8633 0.650463 12.4435 0.230713 11.9258 0.230713ZM10.9883 10.4807H2.61328V2.10571H10.9883V10.4807Z" fill="black"/>
<path d="M12.1875 14H1.9375C1.41975 14 1 14.4197 1 14.9375V25.1875C1 25.7052 1.41975 26.125 1.9375 26.125H12.1875C12.7052 26.125 13.125 25.7052 13.125 25.1875V14.9375C13.125 14.4197 12.7052 14 12.1875 14ZM11.25 24.25H2.875V15.875H11.25V24.25Z" fill="black"/>
<path d="M28.8062 24.1011C28.283 23.1841 27.3916 22.5276 26.3606 22.2997L23.9875 21.775V17.0432C23.9875 15.4924 22.7258 14.2307 21.175 14.2307C19.6242 14.2307 18.3625 15.4924 18.3625 17.0432V21.1556C17.3423 21.3862 16.4238 21.9573 15.7605 22.7922C14.915 23.8565 14.5814 25.2279 14.843 26.5597C15.0871 28.3282 16.5449 31.6344 16.5596 31.6678C16.7098 32.0068 17.0456 32.2255 17.4164 32.2257L26.542 32.2307H26.5425C26.9215 32.2307 27.2633 32.0025 27.4085 31.6523C27.452 31.5475 28.4808 29.062 29.1129 27.126C29.4416 26.1213 29.3298 25.0187 28.8062 24.1011ZM27.3308 26.543C27.3308 26.5432 27.3308 26.5433 27.3307 26.5435C26.8996 27.864 26.2554 29.5018 25.912 30.3553L18.036 30.3511C17.5796 29.2533 16.8315 27.3057 16.6977 26.2835C16.6948 26.2615 16.6912 26.2396 16.6867 26.2178C16.5241 25.4201 16.7216 24.5967 17.2286 23.9586C17.531 23.5779 17.9229 23.2901 18.3625 23.1142V25.6682C18.3625 26.186 18.7823 26.6057 19.3 26.6057C19.8178 26.6057 20.2375 26.186 20.2375 25.6682V21.982V21.9807V17.0432C20.2375 16.5263 20.6581 16.1057 21.175 16.1057C21.692 16.1057 22.1125 16.5263 22.1125 17.0432V22.532C22.1125 22.9966 22.4528 23.391 22.9123 23.4593L22.9385 23.4632L25.9558 24.1305C26.4785 24.246 26.9125 24.5656 27.1776 25.0303C27.4433 25.4958 27.4977 26.033 27.3308 26.543Z" fill="black"/>
<path d="M22.4661 4.39593L21.1602 5.70181L20.6356 5.17718C20.2695 4.81112 19.6759 4.81112 19.3097 5.17718C18.9436 5.54324 18.9436 6.13687 19.3097 6.50299L20.4972 7.69049C20.6803 7.87356 20.9202 7.96512 21.1601 7.96512C21.4 7.96512 21.64 7.87356 21.823 7.69049L23.7918 5.72174C24.1579 5.35568 24.1579 4.76206 23.7918 4.39593C23.4258 4.02981 22.8321 4.02981 22.4661 4.39593Z" fill="black"/>
</svg>
