<svg width="32" height="32" viewBox="0 0 32 32" fill="none" xmlns="http://www.w3.org/2000/svg">
<g clip-path="url(#clip0_2273_13119)">
<path d="M21.7002 18.8256L17.2385 15.4793V8.66296C17.2385 7.97758 16.6845 7.42358 15.9991 7.42358C15.3138 7.42358 14.7598 7.97758 14.7598 8.66296V16.0991C14.7598 16.4895 14.9432 16.8576 15.2555 17.0906L20.2129 20.8086C20.436 20.976 20.6963 21.0565 20.9553 21.0565C21.3333 21.0565 21.7051 20.8867 21.948 20.5595C22.3596 20.0129 22.248 19.2358 21.7002 18.8256Z" fill="white"/>
<path d="M16 0C7.17706 0 0 7.17706 0 16C0 24.8229 7.17706 32 16 32C24.8229 32 32 24.8229 32 16C32 7.17706 24.8229 0 16 0ZM16 29.5213C8.54531 29.5213 2.47869 23.4547 2.47869 16C2.47869 8.54531 8.54531 2.47869 16 2.47869C23.4559 2.47869 29.5213 8.54531 29.5213 16C29.5213 23.4547 23.4547 29.5213 16 29.5213Z" fill="white"/>
</g>
<defs>
<clipPath id="clip0_2273_13119">
<rect width="32" height="32" fill="white"/>
</clipPath>
</defs>
</svg>
