<svg width="33" height="34" viewBox="0 0 33 34" fill="none" xmlns="http://www.w3.org/2000/svg">
<g clip-path="url(#clip0_2273_9077)">
<path d="M28.1674 5.33276C25.073 2.23839 20.8761 0.5 16.5001 0.5C12.124 0.5 7.92712 2.23839 4.83276 5.33276C1.73839 8.42712 0 12.624 0 17.0001C0 21.3761 1.73839 25.573 4.83276 28.6674C7.92712 31.7617 12.124 33.5001 16.5001 33.5001C20.8761 33.5001 25.073 31.7617 28.1674 28.6674C31.2617 25.573 33.0001 21.3761 33.0001 17.0001C33.0001 12.624 31.2617 8.42712 28.1674 5.33276ZM16.5001 31.4376C8.5392 31.4376 2.06256 24.9609 2.06256 17.0001C2.06256 9.0392 8.5392 2.56256 16.5001 2.56256C24.4609 2.56256 30.9376 9.0392 30.9376 17.0001C30.9376 24.9609 24.4609 31.4376 16.5001 31.4376ZM20.8223 13.5915C21.014 13.7828 21.1228 14.0419 21.1251 14.3127C21.1274 14.5835 21.0231 14.8444 20.8346 15.039C20.6462 15.2335 20.3888 15.3461 20.1181 15.3525C19.8473 15.3588 19.5849 15.2584 19.3876 15.0729L16.5001 12.2762L13.6126 15.0729C13.416 15.2626 13.1522 15.3665 12.8791 15.3619C12.606 15.3572 12.3459 15.2444 12.1558 15.0482C11.9658 14.852 11.8613 14.5885 11.8654 14.3154C11.8695 14.0422 11.9818 13.7819 12.1776 13.5915L15.7823 10.0997C15.9747 9.91338 16.232 9.80919 16.4998 9.80919C16.7676 9.80919 17.0249 9.91338 17.2173 10.0997L20.8223 13.5915ZM20.8455 20.9191C21.0358 21.1156 21.1402 21.3796 21.1359 21.653C21.1315 21.9265 21.0187 22.187 20.8223 22.3773L17.2176 25.8688C17.0252 26.0551 16.7679 26.1593 16.5001 26.1593C16.2322 26.1593 15.9749 26.0551 15.7826 25.8688L12.1778 22.3773C11.9856 22.1861 11.8764 21.9269 11.8739 21.6558C11.8713 21.3847 11.9757 21.1235 12.1643 20.9287C12.3529 20.734 12.6106 20.6213 12.8817 20.6152C13.1527 20.609 13.4153 20.7099 13.6126 20.8959L16.5001 23.6927L19.3876 20.8959C19.584 20.7057 19.8479 20.6013 20.1213 20.6056C20.3947 20.61 20.6552 20.7228 20.8455 20.9191Z" fill="black"/>
</g>
<defs>
<clipPath id="clip0_2273_9077">
<rect width="33" height="33" fill="white" transform="translate(0 0.5)"/>
</clipPath>
</defs>
</svg>
